<?xml version="1.0" encoding="UTF-8" standalone="no"?>
<!DOCTYPE svg PUBLIC "-//W3C//DTD SVG 1.1//EN"
 "http://www.w3.org/Graphics/SVG/1.1/DTD/svg11.dtd">
<!-- Generated by graphviz version 2.38.0 (20140413.2041)
 -->
<!-- Title: vector_for_each Pages: 1 -->
<svg width="369pt" height="52pt"
 viewBox="0.00 0.00 369.00 51.50" xmlns="http://www.w3.org/2000/svg" xmlns:xlink="http://www.w3.org/1999/xlink">
<g id="graph0" class="graph" transform="scale(1 1) rotate(0) translate(4 47.5)">
<title>vector_for_each</title>
<!-- Node1 -->
<g id="node1" class="node"><title>Node1</title>
<g id="a_node1"><a xlink:title="Zavolání zvolené funkce na každý element vektoru od pozice určené iterátorem až do konce vektoru.">
<polygon fill="#999999" stroke="#666666" points="84,-38 0,-38 0,-19 84,-19 84,-38"/>
<text text-anchor="middle" x="42" y="-26" font-family="Helvetica,sans-Serif" font-size="10.00">vector_for_each</text>
</a>
</g>
</g>
<!-- Node2 -->
<g id="node2" class="node"><title>Node2</title>
<g id="a_node2"><a xlink:href="group___t_vector_iterator.html#ga3f8a97a63f887539e270f6845bf22b9a" target="_top" xlink:title="Zjištění platnosti iterátoru.">
<polygon fill="white" stroke="#666666" points="361,-43.5 271,-43.5 271,-13.5 361,-13.5 361,-43.5"/>
<text text-anchor="start" x="279" y="-31.5" font-family="Helvetica,sans-Serif" font-size="10.00">vector_iterator_is</text>
<text text-anchor="middle" x="316" y="-20.5" font-family="Helvetica,sans-Serif" font-size="10.00">_valid</text>
</a>
</g>
</g>
<!-- Node1&#45;&gt;Node2 -->
<g id="edge1" class="edge"><title>Node1&#45;&gt;Node2</title>
<path fill="none" stroke="#63b8ff" d="M84.0157,-28.5C131.182,-28.5 208.792,-28.5 260.879,-28.5"/>
<polygon fill="#63b8ff" stroke="#63b8ff" points="260.939,-32.0001 270.939,-28.5 260.939,-25.0001 260.939,-32.0001"/>
</g>
<!-- Node3 -->
<g id="node3" class="node"><title>Node3</title>
<g id="a_node3"><a xlink:href="group___t_vector_iterator.html#ga7ce07cda016d67e3ca891125613ece56" target="_top" xlink:title="Posunutí iterátoru vpřed.">
<polygon fill="white" stroke="#666666" points="235,-19 120,-19 120,-0 235,-0 235,-19"/>
<text text-anchor="middle" x="177.5" y="-7" font-family="Helvetica,sans-Serif" font-size="10.00">vector_iterator_to_next</text>
</a>
</g>
</g>
<!-- Node1&#45;&gt;Node3 -->
<g id="edge2" class="edge"><title>Node1&#45;&gt;Node3</title>
<path fill="none" stroke="#63b8ff" d="M84.1437,-22.6443C92.1832,-21.5001 100.807,-20.2728 109.437,-19.0445"/>
<polygon fill="#63b8ff" stroke="#63b8ff" points="110.131,-22.4812 119.538,-17.607 109.144,-15.551 110.131,-22.4812"/>
</g>
<!-- Node3&#45;&gt;Node2 -->
<g id="edge3" class="edge"><title>Node3&#45;&gt;Node2</title>
<path fill="none" stroke="#63b8ff" d="M235.202,-17.3926C243.639,-18.5669 252.317,-19.7749 260.702,-20.9421"/>
<polygon fill="#63b8ff" stroke="#63b8ff" points="260.362,-24.4283 270.749,-22.3405 261.327,-17.4952 260.362,-24.4283"/>
</g>
</g>
</svg>
