<?xml version="1.0" encoding="UTF-8" standalone="no"?>
<!DOCTYPE svg PUBLIC "-//W3C//DTD SVG 1.1//EN"
 "http://www.w3.org/Graphics/SVG/1.1/DTD/svg11.dtd">
<!-- Generated by graphviz version 2.38.0 (20140413.2041)
 -->
<!-- Title: TVectorIterator Pages: 1 -->
<svg width="145pt" height="182pt"
 viewBox="0.00 0.00 145.00 182.00" xmlns="http://www.w3.org/2000/svg" xmlns:xlink="http://www.w3.org/1999/xlink">
<g id="graph0" class="graph" transform="scale(1 1) rotate(0) translate(4 178)">
<title>TVectorIterator</title>
<!-- Node1 -->
<g id="node1" class="node"><title>Node1</title>
<g id="a_node1"><a xlink:title="Definice typu VectorIterator.">
<polygon fill="#999999" stroke="#666666" points="28.5,-0.5 28.5,-57.5 108.5,-57.5 108.5,-0.5 28.5,-0.5"/>
<text text-anchor="middle" x="68.5" y="-45.5" font-family="Helvetica,sans-Serif" font-size="10.00">TVectorIterator</text>
<polyline fill="none" stroke="#666666" points="28.5,-38.5 108.5,-38.5 "/>
<text text-anchor="start" x="36.5" y="-26.5" font-family="Helvetica,sans-Serif" font-size="10.00">+ size_t iPos</text>
<polyline fill="none" stroke="#666666" points="28.5,-19.5 108.5,-19.5 "/>
<text text-anchor="middle" x="68.5" y="-7.5" font-family="Helvetica,sans-Serif" font-size="10.00"> </text>
</a>
</g>
</g>
<!-- Node2 -->
<g id="node2" class="node"><title>Node2</title>
<g id="a_node2"><a xlink:href="group___t_vector.html#struct_t_vector" target="_top" xlink:title="Definice typu Vector.">
<polygon fill="white" stroke="#666666" points="0,-105.5 0,-173.5 137,-173.5 137,-105.5 0,-105.5"/>
<text text-anchor="middle" x="68.5" y="-161.5" font-family="Helvetica,sans-Serif" font-size="10.00">TVector</text>
<polyline fill="none" stroke="#666666" points="0,-154.5 137,-154.5 "/>
<text text-anchor="start" x="8" y="-142.5" font-family="Helvetica,sans-Serif" font-size="10.00">+ TVectorElement * iValues</text>
<text text-anchor="start" x="8" y="-131.5" font-family="Helvetica,sans-Serif" font-size="10.00">+ size_t iSize</text>
<polyline fill="none" stroke="#666666" points="0,-124.5 137,-124.5 "/>
<text text-anchor="middle" x="68.5" y="-112.5" font-family="Helvetica,sans-Serif" font-size="10.00"> </text>
</a>
</g>
</g>
<!-- Node2&#45;&gt;Node1 -->
<g id="edge1" class="edge"><title>Node2&#45;&gt;Node1</title>
<path fill="none" stroke="#404040" d="M68.5,-105.357C68.5,-94.1899 68.5,-81.6093 68.5,-69.9724"/>
<polygon fill="none" stroke="#404040" points="68.5001,-69.827 64.5,-63.827 68.5,-57.827 72.5,-63.8269 68.5001,-69.827"/>
<text text-anchor="middle" x="88.5" y="-79" font-family="Helvetica,sans-Serif" font-size="10.00"> +iVector</text>
</g>
</g>
</svg>
